<?xml version="1.0" encoding="UTF-8" standalone="no"?>
<!-- Created with Inkscape (http://www.inkscape.org/) -->

<svg
   xmlns:dc="http://purl.org/dc/elements/1.1/"
   xmlns:cc="http://creativecommons.org/ns#"
   xmlns:rdf="http://www.w3.org/1999/02/22-rdf-syntax-ns#"
   xmlns:svg="http://www.w3.org/2000/svg"
   xmlns="http://www.w3.org/2000/svg"
   xmlns:sodipodi="http://sodipodi.sourceforge.net/DTD/sodipodi-0.dtd"
   xmlns:inkscape="http://www.inkscape.org/namespaces/inkscape"
   width="64px"
   height="64px"
   id="svg3959"
   version="1.1"
   inkscape:version="0.48.3.1 r9886"
   sodipodi:docname="avatar2d-square.svg"
   inkscape:export-filename="/home/igor/creation/Images/avatar/neo-avatar_square-256.png"
   inkscape:export-xdpi="361.08447"
   inkscape:export-ydpi="361.08447">
  <defs
     id="defs3961">
    <filter
       id="filter3061"
       inkscape:label="Darken edges"
       inkscape:menu="Shadows and Glows"
       inkscape:menu-tooltip="Darken the edges with an inner blur"
       color-interpolation-filters="sRGB">
      <feGaussianBlur
         id="feGaussianBlur3063"
         result="result6"
         stdDeviation="1.5" />
      <feComposite
         id="feComposite3065"
         in2="result6"
         operator="atop"
         in="SourceGraphic"
         result="result8" />
      <feComposite
         id="feComposite3067"
         in2="SourceAlpha"
         in="result8"
         operator="atop"
         result="result9" />
    </filter>
  </defs>
  <sodipodi:namedview
     id="base"
     pagecolor="#ffffff"
     bordercolor="#666666"
     borderopacity="1.0"
     inkscape:pageopacity="0.0"
     inkscape:pageshadow="2"
     inkscape:zoom="0.70710678"
     inkscape:cx="1085.7766"
     inkscape:cy="-14.346485"
     inkscape:current-layer="layer1"
     showgrid="true"
     inkscape:document-units="px"
     inkscape:grid-bbox="true"
     inkscape:window-width="1920"
     inkscape:window-height="1027"
     inkscape:window-x="0"
     inkscape:window-y="24"
     inkscape:window-maximized="1" />
  <metadata
     id="metadata3964">
    <rdf:RDF>
      <cc:Work
         rdf:about="">
        <dc:format>image/svg+xml</dc:format>
        <dc:type
           rdf:resource="http://purl.org/dc/dcmitype/StillImage" />
        <dc:title></dc:title>
      </cc:Work>
    </rdf:RDF>
  </metadata>
  <g
     id="layer1"
     inkscape:label="Layer 1"
     inkscape:groupmode="layer">
    <rect
       style="fill:#eed7f4;fill-opacity:1;fill-rule:nonzero;stroke:none"
       id="rect3469"
       width="64.523491"
       height="63.904778"
       x="-0.17677671"
       y="0.0068362518"
       inkscape:export-filename="/home/igor/creation/Images/avatar/neo-avatar-square-256.png"
       inkscape:export-xdpi="358.36905"
       inkscape:export-ydpi="358.36905" />
    <path
       id="path3957"
       style="fill:#67536c"
       d="m 50.604537,64.007928 c -0.979339,-1.553384 -3.346734,-5.721263 -3.505556,-7.562989 -0.228537,-2.650159 0.183937,-6.446917 0.667506,-6.446917 8.758396,5.703073 8.429503,12.855557 10.263472,14.195326 l 3.366834,0.04663 3.082122,-0.05849 -0.04102,-1.55278 -2.341864,-4.838992 -5.120655,-7.252077 c -2.608788,-3.694669 -7.616444,-6.598555 -8.354938,-6.598555 -0.289253,0 -0.889577,0.63903 -1.334059,1.420066 -0.444472,0.781036 -1.353088,1.811481 -2.019153,2.289881 -2.157685,1.549761 -5.003377,3.259664 -5.295692,3.182041 -0.664808,0.337958 -1.02846,0.224319 -1.668042,0.421381 -0.597708,0.307783 -1.856181,0.758072 -2.796607,1.000639 -0.940425,0.242566 -2.393812,0.747147 -3.229745,1.12129 -1.763005,0.789077 -3.628709,1.039601 -4.237625,1.221424 -0.493936,0.14749 -2.169458,3.1074 -2.568102,3.855466 -0.18256,0.342579 -0.465006,0.60802 -0.730554,1.009312 -0.425719,0.643341 -2.734312,3.906788 -2.800684,4.551454 2.485132,0.04253 4.873298,0.02435 7.391085,0.03381 4.020945,0.01511 8.236264,-0.116468 12.061117,0.02289 2.159684,0.07869 4.210905,-0.0185 6.126059,-0.05399 0.643328,-0.01192 1.249408,-0.002 1.874942,0.0146 0.398592,0.01059 0.823645,0.07032 1.211158,-0.02142 z m -29.383743,0.05791 c 0.112185,-0.364483 0.399059,-3.41732 0.63749,-4.979392 0.238432,-1.562072 0.685037,-3.327107 0.992455,-3.922297 0.74016,-1.433012 0.383059,-2.440604 -1.403415,-3.959855 l -1.475952,-1.255178 -1.045785,1.633863 c -0.575183,0.898625 -1.331497,1.974678 -1.680702,2.391231 -0.649585,0.774864 -2.185611,4.420096 -2.99631,7.447729 -0.879765,2.42106 -1.032856,2.624564 -0.432046,2.644892 0.514198,0.0174 1.597322,0.0093 3.063081,-0.07079 0.476427,-0.02604 1.812743,0.05702 2.903595,0.07491 0.635131,0.01041 1.18705,-0.104551 1.437589,-0.0051 z m 6.045825,-14.58113 c 0.745974,-1.134647 0.824582,-2.602531 0.201495,-3.762829 -0.166046,-0.309207 -1.375713,-1.354432 -1.503709,-1.573554 -0.326333,-0.558663 -0.08278,-0.712658 0.510145,-0.878011 0.462373,-0.09107 0.791727,-2.063949 0.383305,-3.109928 l 0.999779,0.243574 c 1.211283,0.295102 1.556269,0.755698 1.563914,2.088001 0.0079,1.38033 0.940878,2.204483 2.495526,2.204483 1.07707,0 1.337171,-0.165414 1.542568,-0.981015 0.135881,-0.539561 0.05365,-1.624382 -0.182746,-2.410712 -0.566,-1.882757 -0.545923,-3.691602 0.04518,-4.068469 0.513002,-0.327084 0.989329,-1.031059 2.182086,-3.224969 1.04499,-1.922107 1.953909,-2.35693 3.715556,-1.777502 1.652855,0.543647 2.223353,1.055752 2.768736,2.485361 0.450127,1.179919 0.406954,4.776328 -0.07317,6.095793 -0.219182,0.602338 -0.166707,0.852039 0.179045,0.852039 0.579441,0 1.547479,-1.271898 3.266192,-4.291445 1.009232,-1.77308 1.218727,-2.494352 1.062227,-3.657162 -0.109183,-0.811251 -0.0123,-1.630478 0.22016,-1.862176 0.228297,-0.227529 1.365193,-0.413689 2.526435,-0.413689 3.024678,0 4.427391,-0.513299 6.101845,-2.232871 2.562018,-2.63107 3.303713,-8.058842 1.564454,-11.448958 -3.035099,-5.915935 -9.548799,-8.9671973 -14.552777,-6.817062 -3.588734,1.542019 -5.151639,4.780271 -4.733572,9.807694 l 0.228852,2.752094 -1.040632,-0.203172 C 34.58472,22.879918 28.73288,23.0927 27.108831,23.650336 c -0.90281,0.30999 -1.709589,0.495739 -1.792836,0.412769 -0.08325,-0.08297 -0.401043,-1.468704 -0.706212,-3.079411 -1.1977,-6.321628 -4.067227,-9.341033 -8.823554,-9.284417 -3.211927,0.03823 -5.9068643,1.548536 -7.5095483,4.208504 -2.972912,4.93413 -2.417833,10.738007 1.371286,14.338184 1.8206483,1.729864 3.1658843,2.35904 5.5732793,2.606665 l 2.047082,0.210564 0,1.840439 c 0,1.012246 0.170986,1.840443 0.379969,1.840443 0.208984,0 0.382783,-0.724234 0.386222,-1.609407 0.007,-1.790064 1.39875,-4.638882 2.266334,-4.638882 0.356903,0 0.684263,0.766343 0.970581,2.272105 0.237619,1.249658 0.759276,2.822015 1.159231,3.494131 0.606573,1.019315 0.875075,1.568372 0.252236,1.982952 -0.417478,0.277886 -0.474962,1.353792 -0.474962,2.078404 0,0.617407 0.898491,2.650641 0.151953,1.994377 -0.242295,-0.212996 -0.835123,0.02322 -1.291864,0.485267 -2.533594,2.563049 -0.488829,7.142128 3.769626,7.48523 1.485391,0.119677 1.62498,-0.154531 2.428965,-0.803545 z m -8.478418,-9.086625 c 0,-0.07305 -0.187712,-0.669483 -0.417141,-1.325395 -0.550524,-1.573891 -1.15058,-1.543157 -0.696242,0.03567 0.194393,0.675528 0.353444,1.271955 0.353444,1.325398 0,0.05345 0.170987,0.09717 0.379969,0.09717 0.208985,0 0.37997,-0.05977 0.37997,-0.132843 z"
       inkscape:connector-curvature="0"
       sodipodi:nodetypes="csccccccssssccssssscssssccssscsscsssccssccscssscssssssscssssscsscssssscsscsssssssscsssssss"
       inkscape:export-filename="/home/igor/creation/Images/avatar/neo-avatar-square-256.png"
       inkscape:export-xdpi="358.36905"
       inkscape:export-ydpi="358.36905" />
  </g>
  <g
     inkscape:groupmode="layer"
     inkscape:label="Copie de Layer 1"
     id="g2994" />
</svg>
